<svg width="8" height="13" viewBox="0 0 8 13" fill="none" xmlns="http://www.w3.org/2000/svg">
<path fill-rule="evenodd" clip-rule="evenodd" d="M0.916626 0.792511L6.84995 2.03501C7.53079 2.18584 7.99995 2.77168 7.99995 3.46001V11.5417C7.99995 12.3458 7.34579 13 6.54162 13H0.916626V0.792511ZM3.62496 10.5H4.87496C5.21996 10.5 5.49996 10.22 5.49996 9.875C5.49996 9.53 5.21996 9.25 4.87496 9.25H3.62496C3.27996 9.25 2.99996 9.53 2.99996 9.875C2.99996 10.22 3.27996 10.5 3.62496 10.5ZM4.87496 8H3.62496C3.27996 8 2.99996 7.72 2.99996 7.375C2.99996 7.03 3.27996 6.75001 3.62496 6.75001H4.87496C5.21996 6.75001 5.49996 7.03 5.49996 7.375C5.49996 7.72 5.21996 8 4.87496 8ZM3.62496 5.50001H4.87496C5.21996 5.50001 5.49996 5.22001 5.49996 4.87501C5.49996 4.53001 5.21996 4.25001 4.87496 4.25001H3.62496C3.27996 4.25001 2.99996 4.53001 2.99996 4.87501C2.99996 5.22001 3.27996 5.50001 3.62496 5.50001Z" fill="#4B6A9B"/>
</svg>
